<mxfile host="app.diagrams.net" modified="2021-05-10T03:15:16.373Z" agent="5.0 (Macintosh; Intel Mac OS X 10_15_5) AppleWebKit/537.36 (KHTML, like Gecko) Chrome/89.0.4389.90 Safari/537.36" etag="PDx3MI8gM1zuSwdDtmi3" version="14.6.11" type="github" pages="2">
  <diagram id="tJS1vDHtEpJE7gst3Dyk" name="第 2 页">
    <mxGraphModel dx="688" dy="516" grid="1" gridSize="10" guides="1" tooltips="1" connect="1" arrows="1" fold="1" page="1" pageScale="1" pageWidth="850" pageHeight="1100" math="0" shadow="0">
      <root>
        <mxCell id="xql4D70qpOJd92CGWvO2-0" />
        <mxCell id="xql4D70qpOJd92CGWvO2-1" parent="xql4D70qpOJd92CGWvO2-0" />
        <mxCell id="ubjEfvp4QpHeggkvliJD-7" value="" style="edgeStyle=orthogonalEdgeStyle;rounded=0;orthogonalLoop=1;jettySize=auto;html=1;entryX=0;entryY=0.5;entryDx=0;entryDy=0;" edge="1" parent="xql4D70qpOJd92CGWvO2-1" source="ubjEfvp4QpHeggkvliJD-1" target="ubjEfvp4QpHeggkvliJD-3">
          <mxGeometry relative="1" as="geometry">
            <Array as="points" />
          </mxGeometry>
        </mxCell>
        <mxCell id="ubjEfvp4QpHeggkvliJD-1" value="" style="ellipse;whiteSpace=wrap;html=1;aspect=fixed;fillColor=#000000;" vertex="1" parent="xql4D70qpOJd92CGWvO2-1">
          <mxGeometry x="30" y="320" width="30" height="30" as="geometry" />
        </mxCell>
        <mxCell id="ubjEfvp4QpHeggkvliJD-2" value="打开程序" style="text;html=1;strokeColor=none;fillColor=none;align=center;verticalAlign=middle;whiteSpace=wrap;rounded=0;" vertex="1" parent="xql4D70qpOJd92CGWvO2-1">
          <mxGeometry x="17.5" y="290" width="55" height="20" as="geometry" />
        </mxCell>
        <mxCell id="ubjEfvp4QpHeggkvliJD-3" value="" style="rounded=1;whiteSpace=wrap;html=1;fillColor=#FFFFFF;" vertex="1" parent="xql4D70qpOJd92CGWvO2-1">
          <mxGeometry x="120" y="315" width="90" height="40" as="geometry" />
        </mxCell>
        <mxCell id="ubjEfvp4QpHeggkvliJD-30" value="" style="edgeStyle=orthogonalEdgeStyle;rounded=0;orthogonalLoop=1;jettySize=auto;html=1;" edge="1" parent="xql4D70qpOJd92CGWvO2-1" target="ubjEfvp4QpHeggkvliJD-11">
          <mxGeometry relative="1" as="geometry">
            <mxPoint x="165" y="360" as="sourcePoint" />
          </mxGeometry>
        </mxCell>
        <mxCell id="ubjEfvp4QpHeggkvliJD-4" value="模式选择" style="text;html=1;strokeColor=none;fillColor=none;align=center;verticalAlign=middle;whiteSpace=wrap;rounded=0;" vertex="1" parent="xql4D70qpOJd92CGWvO2-1">
          <mxGeometry x="137.5" y="325" width="55" height="20" as="geometry" />
        </mxCell>
        <mxCell id="ubjEfvp4QpHeggkvliJD-24" value="" style="edgeStyle=orthogonalEdgeStyle;rounded=0;orthogonalLoop=1;jettySize=auto;html=1;" edge="1" parent="xql4D70qpOJd92CGWvO2-1" source="ubjEfvp4QpHeggkvliJD-5" target="ubjEfvp4QpHeggkvliJD-22">
          <mxGeometry relative="1" as="geometry" />
        </mxCell>
        <mxCell id="ubjEfvp4QpHeggkvliJD-5" value="视频编辑模式" style="rounded=1;whiteSpace=wrap;html=1;fillColor=#FFFFFF;" vertex="1" parent="xql4D70qpOJd92CGWvO2-1">
          <mxGeometry x="220" y="255" width="95" height="40" as="geometry" />
        </mxCell>
        <mxCell id="ubjEfvp4QpHeggkvliJD-25" value="" style="edgeStyle=orthogonalEdgeStyle;rounded=0;orthogonalLoop=1;jettySize=auto;html=1;" edge="1" parent="xql4D70qpOJd92CGWvO2-1" source="ubjEfvp4QpHeggkvliJD-6" target="ubjEfvp4QpHeggkvliJD-23">
          <mxGeometry relative="1" as="geometry" />
        </mxCell>
        <mxCell id="ubjEfvp4QpHeggkvliJD-6" value="图片编辑模式" style="rounded=1;whiteSpace=wrap;html=1;fillColor=#FFFFFF;" vertex="1" parent="xql4D70qpOJd92CGWvO2-1">
          <mxGeometry x="220" y="592.5" width="95" height="40" as="geometry" />
        </mxCell>
        <mxCell id="ubjEfvp4QpHeggkvliJD-13" value="" style="edgeStyle=orthogonalEdgeStyle;rounded=0;orthogonalLoop=1;jettySize=auto;html=1;" edge="1" parent="xql4D70qpOJd92CGWvO2-1" source="ubjEfvp4QpHeggkvliJD-11" target="ubjEfvp4QpHeggkvliJD-5">
          <mxGeometry relative="1" as="geometry" />
        </mxCell>
        <mxCell id="ubjEfvp4QpHeggkvliJD-14" value="" style="edgeStyle=orthogonalEdgeStyle;rounded=0;orthogonalLoop=1;jettySize=auto;html=1;" edge="1" parent="xql4D70qpOJd92CGWvO2-1" source="ubjEfvp4QpHeggkvliJD-11" target="ubjEfvp4QpHeggkvliJD-6">
          <mxGeometry relative="1" as="geometry" />
        </mxCell>
        <mxCell id="ubjEfvp4QpHeggkvliJD-11" value="" style="rhombus;whiteSpace=wrap;html=1;fillColor=#FFFFFF;" vertex="1" parent="xql4D70qpOJd92CGWvO2-1">
          <mxGeometry x="147.5" y="400" width="35" height="35" as="geometry" />
        </mxCell>
        <mxCell id="ubjEfvp4QpHeggkvliJD-22" value="" style="rounded=0;whiteSpace=wrap;html=1;fillColor=#FFFFFF;" vertex="1" parent="xql4D70qpOJd92CGWvO2-1">
          <mxGeometry x="400" y="130" width="430" height="340" as="geometry" />
        </mxCell>
        <mxCell id="ubjEfvp4QpHeggkvliJD-23" value="" style="rounded=0;whiteSpace=wrap;html=1;fillColor=#FFFFFF;" vertex="1" parent="xql4D70qpOJd92CGWvO2-1">
          <mxGeometry x="400" y="560" width="430" height="290" as="geometry" />
        </mxCell>
        <mxCell id="ubjEfvp4QpHeggkvliJD-35" value="" style="edgeStyle=orthogonalEdgeStyle;rounded=0;orthogonalLoop=1;jettySize=auto;html=1;" edge="1" parent="xql4D70qpOJd92CGWvO2-1" source="ubjEfvp4QpHeggkvliJD-26" target="ubjEfvp4QpHeggkvliJD-27">
          <mxGeometry relative="1" as="geometry" />
        </mxCell>
        <mxCell id="ubjEfvp4QpHeggkvliJD-26" value="" style="ellipse;whiteSpace=wrap;html=1;aspect=fixed;fillColor=#000000;" vertex="1" parent="xql4D70qpOJd92CGWvO2-1">
          <mxGeometry x="425" y="240" width="30" height="30" as="geometry" />
        </mxCell>
        <mxCell id="ubjEfvp4QpHeggkvliJD-37" value="" style="edgeStyle=orthogonalEdgeStyle;rounded=0;orthogonalLoop=1;jettySize=auto;html=1;" edge="1" parent="xql4D70qpOJd92CGWvO2-1" source="ubjEfvp4QpHeggkvliJD-27" target="ubjEfvp4QpHeggkvliJD-36">
          <mxGeometry relative="1" as="geometry" />
        </mxCell>
        <mxCell id="ubjEfvp4QpHeggkvliJD-27" value="文件上传" style="rounded=1;whiteSpace=wrap;html=1;fillColor=#FFFFFF;" vertex="1" parent="xql4D70qpOJd92CGWvO2-1">
          <mxGeometry x="480" y="235" width="130" height="40" as="geometry" />
        </mxCell>
        <mxCell id="ubjEfvp4QpHeggkvliJD-28" value="视频编辑" style="text;html=1;strokeColor=none;fillColor=none;align=center;verticalAlign=middle;whiteSpace=wrap;rounded=0;" vertex="1" parent="xql4D70qpOJd92CGWvO2-1">
          <mxGeometry x="400" y="220" width="80" height="20" as="geometry" />
        </mxCell>
        <mxCell id="ubjEfvp4QpHeggkvliJD-31" value="音量调节" style="rounded=1;whiteSpace=wrap;html=1;fillColor=#FFFFFF;" vertex="1" parent="xql4D70qpOJd92CGWvO2-1">
          <mxGeometry x="670" y="160" width="110" height="40" as="geometry" />
        </mxCell>
        <mxCell id="ubjEfvp4QpHeggkvliJD-32" value="字幕调节" style="rounded=1;whiteSpace=wrap;html=1;fillColor=#FFFFFF;" vertex="1" parent="xql4D70qpOJd92CGWvO2-1">
          <mxGeometry x="660" y="235" width="110" height="40" as="geometry" />
        </mxCell>
        <mxCell id="ubjEfvp4QpHeggkvliJD-33" value="时长调节" style="rounded=1;whiteSpace=wrap;html=1;fillColor=#FFFFFF;" vertex="1" parent="xql4D70qpOJd92CGWvO2-1">
          <mxGeometry x="660" y="315" width="110" height="40" as="geometry" />
        </mxCell>
        <mxCell id="ubjEfvp4QpHeggkvliJD-39" style="edgeStyle=orthogonalEdgeStyle;rounded=0;orthogonalLoop=1;jettySize=auto;html=1;entryX=0;entryY=0.75;entryDx=0;entryDy=0;" edge="1" parent="xql4D70qpOJd92CGWvO2-1" source="ubjEfvp4QpHeggkvliJD-36" target="ubjEfvp4QpHeggkvliJD-31">
          <mxGeometry relative="1" as="geometry">
            <Array as="points">
              <mxPoint x="630" y="343" />
              <mxPoint x="630" y="190" />
            </Array>
          </mxGeometry>
        </mxCell>
        <mxCell id="ubjEfvp4QpHeggkvliJD-36" value="" style="rhombus;whiteSpace=wrap;html=1;fillColor=#FFFFFF;" vertex="1" parent="xql4D70qpOJd92CGWvO2-1">
          <mxGeometry x="525" y="320" width="40" height="40" as="geometry" />
        </mxCell>
        <mxCell id="ubjEfvp4QpHeggkvliJD-38" value="上传成功" style="text;html=1;strokeColor=none;fillColor=none;align=center;verticalAlign=middle;whiteSpace=wrap;rounded=0;" vertex="1" parent="xql4D70qpOJd92CGWvO2-1">
          <mxGeometry x="575" y="315" width="50" height="25" as="geometry" />
        </mxCell>
        <mxCell id="ubjEfvp4QpHeggkvliJD-41" value="" style="endArrow=classic;html=1;" edge="1" parent="xql4D70qpOJd92CGWvO2-1">
          <mxGeometry width="50" height="50" relative="1" as="geometry">
            <mxPoint x="630" y="260" as="sourcePoint" />
            <mxPoint x="660" y="260" as="targetPoint" />
          </mxGeometry>
        </mxCell>
        <mxCell id="ubjEfvp4QpHeggkvliJD-42" value="" style="endArrow=classic;html=1;entryX=0;entryY=0.5;entryDx=0;entryDy=0;" edge="1" parent="xql4D70qpOJd92CGWvO2-1" target="ubjEfvp4QpHeggkvliJD-33">
          <mxGeometry width="50" height="50" relative="1" as="geometry">
            <mxPoint x="630" y="335" as="sourcePoint" />
            <mxPoint x="670" y="270" as="targetPoint" />
          </mxGeometry>
        </mxCell>
        <mxCell id="ubjEfvp4QpHeggkvliJD-48" value="" style="endArrow=classic;html=1;entryX=0.25;entryY=1;entryDx=0;entryDy=0;exitX=0.5;exitY=1;exitDx=0;exitDy=0;" edge="1" parent="xql4D70qpOJd92CGWvO2-1" source="ubjEfvp4QpHeggkvliJD-36" target="ubjEfvp4QpHeggkvliJD-27">
          <mxGeometry width="50" height="50" relative="1" as="geometry">
            <mxPoint x="555" y="363" as="sourcePoint" />
            <mxPoint x="560" y="362.5" as="targetPoint" />
            <Array as="points">
              <mxPoint x="545" y="380" />
              <mxPoint x="513" y="380" />
            </Array>
          </mxGeometry>
        </mxCell>
        <mxCell id="ubjEfvp4QpHeggkvliJD-49" value="上传失败" style="text;html=1;strokeColor=none;fillColor=none;align=center;verticalAlign=middle;whiteSpace=wrap;rounded=0;" vertex="1" parent="xql4D70qpOJd92CGWvO2-1">
          <mxGeometry x="510" y="385" width="50" height="15" as="geometry" />
        </mxCell>
        <mxCell id="ubjEfvp4QpHeggkvliJD-58" value="" style="edgeStyle=none;orthogonalLoop=1;jettySize=auto;html=1;" edge="1" parent="xql4D70qpOJd92CGWvO2-1" source="ubjEfvp4QpHeggkvliJD-51" target="ubjEfvp4QpHeggkvliJD-57">
          <mxGeometry relative="1" as="geometry" />
        </mxCell>
        <mxCell id="ubjEfvp4QpHeggkvliJD-51" value="视频合成" style="rounded=1;whiteSpace=wrap;html=1;fillColor=#FFFFFF;" vertex="1" parent="xql4D70qpOJd92CGWvO2-1">
          <mxGeometry x="660" y="400" width="110" height="48" as="geometry" />
        </mxCell>
        <mxCell id="ubjEfvp4QpHeggkvliJD-52" value="" style="endArrow=classic;html=1;entryX=1;entryY=0.5;entryDx=0;entryDy=0;" edge="1" parent="xql4D70qpOJd92CGWvO2-1" target="ubjEfvp4QpHeggkvliJD-51">
          <mxGeometry width="50" height="50" relative="1" as="geometry">
            <mxPoint x="780" y="180" as="sourcePoint" />
            <mxPoint x="800" y="160" as="targetPoint" />
            <Array as="points">
              <mxPoint x="810" y="180" />
              <mxPoint x="810" y="424" />
            </Array>
          </mxGeometry>
        </mxCell>
        <mxCell id="ubjEfvp4QpHeggkvliJD-54" value="" style="endArrow=none;html=1;exitX=1;exitY=0.5;exitDx=0;exitDy=0;" edge="1" parent="xql4D70qpOJd92CGWvO2-1" source="ubjEfvp4QpHeggkvliJD-32">
          <mxGeometry width="50" height="50" relative="1" as="geometry">
            <mxPoint x="760" y="300" as="sourcePoint" />
            <mxPoint x="810" y="255" as="targetPoint" />
          </mxGeometry>
        </mxCell>
        <mxCell id="ubjEfvp4QpHeggkvliJD-56" value="" style="endArrow=none;html=1;exitX=1;exitY=0.5;exitDx=0;exitDy=0;" edge="1" parent="xql4D70qpOJd92CGWvO2-1" source="ubjEfvp4QpHeggkvliJD-33">
          <mxGeometry width="50" height="50" relative="1" as="geometry">
            <mxPoint x="760" y="360" as="sourcePoint" />
            <mxPoint x="810" y="335" as="targetPoint" />
          </mxGeometry>
        </mxCell>
        <mxCell id="ubjEfvp4QpHeggkvliJD-61" value="" style="edgeStyle=none;orthogonalLoop=1;jettySize=auto;html=1;exitX=0.5;exitY=1;exitDx=0;exitDy=0;" edge="1" parent="xql4D70qpOJd92CGWvO2-1" source="ubjEfvp4QpHeggkvliJD-57" target="ubjEfvp4QpHeggkvliJD-60">
          <mxGeometry relative="1" as="geometry" />
        </mxCell>
        <mxCell id="ubjEfvp4QpHeggkvliJD-57" value="" style="rhombus;whiteSpace=wrap;html=1;fillColor=#FFFFFF;" vertex="1" parent="xql4D70qpOJd92CGWvO2-1">
          <mxGeometry x="560" y="404" width="40" height="40" as="geometry" />
        </mxCell>
        <mxCell id="ubjEfvp4QpHeggkvliJD-59" value="合成成功" style="text;html=1;strokeColor=none;fillColor=none;align=center;verticalAlign=middle;whiteSpace=wrap;rounded=0;" vertex="1" parent="xql4D70qpOJd92CGWvO2-1">
          <mxGeometry x="500" y="448" width="60" height="15" as="geometry" />
        </mxCell>
        <mxCell id="ubjEfvp4QpHeggkvliJD-60" value="" style="ellipse;html=1;shape=endState;fillColor=#000000;strokeColor=#ff0000;" vertex="1" parent="xql4D70qpOJd92CGWvO2-1">
          <mxGeometry x="425" y="430" width="30" height="30" as="geometry" />
        </mxCell>
        <mxCell id="ubjEfvp4QpHeggkvliJD-62" value="合成视频观看" style="text;html=1;strokeColor=none;fillColor=none;align=center;verticalAlign=middle;whiteSpace=wrap;rounded=0;" vertex="1" parent="xql4D70qpOJd92CGWvO2-1">
          <mxGeometry x="400" y="407.5" width="80" height="20" as="geometry" />
        </mxCell>
        <mxCell id="ubjEfvp4QpHeggkvliJD-63" value="" style="endArrow=classic;html=1;exitX=0;exitY=0.5;exitDx=0;exitDy=0;entryX=0;entryY=1;entryDx=0;entryDy=0;" edge="1" parent="xql4D70qpOJd92CGWvO2-1" source="ubjEfvp4QpHeggkvliJD-57" target="ubjEfvp4QpHeggkvliJD-27">
          <mxGeometry width="50" height="50" relative="1" as="geometry">
            <mxPoint x="550" y="440" as="sourcePoint" />
            <mxPoint x="600" y="390" as="targetPoint" />
            <Array as="points">
              <mxPoint x="480" y="424" />
            </Array>
          </mxGeometry>
        </mxCell>
        <mxCell id="ubjEfvp4QpHeggkvliJD-65" value="合成失败" style="text;html=1;strokeColor=none;fillColor=none;align=center;verticalAlign=middle;whiteSpace=wrap;rounded=0;" vertex="1" parent="xql4D70qpOJd92CGWvO2-1">
          <mxGeometry x="505" y="407.5" width="60" height="15" as="geometry" />
        </mxCell>
      </root>
    </mxGraphModel>
  </diagram>
  <diagram id="h4NXKnG3taLFrd10vUne" name="第 3 页">
    <mxGraphModel dx="688" dy="516" grid="1" gridSize="10" guides="1" tooltips="1" connect="1" arrows="1" fold="1" page="1" pageScale="1" pageWidth="850" pageHeight="1100" math="0" shadow="0">
      <root>
        <mxCell id="RxuUumW89x1owzj3WMMr-0" />
        <mxCell id="RxuUumW89x1owzj3WMMr-1" parent="RxuUumW89x1owzj3WMMr-0" />
        <mxCell id="RxuUumW89x1owzj3WMMr-4" value="" style="edgeStyle=none;orthogonalLoop=1;jettySize=auto;html=1;" edge="1" parent="RxuUumW89x1owzj3WMMr-1" source="RxuUumW89x1owzj3WMMr-2" target="RxuUumW89x1owzj3WMMr-3">
          <mxGeometry relative="1" as="geometry" />
        </mxCell>
        <mxCell id="RxuUumW89x1owzj3WMMr-2" value="" style="ellipse;whiteSpace=wrap;html=1;aspect=fixed;fillColor=#000000;" vertex="1" parent="RxuUumW89x1owzj3WMMr-1">
          <mxGeometry x="280" y="140" width="30" height="30" as="geometry" />
        </mxCell>
        <mxCell id="RxuUumW89x1owzj3WMMr-3" value="主页面" style="rounded=1;whiteSpace=wrap;html=1;fillColor=#FFFFFF;" vertex="1" parent="RxuUumW89x1owzj3WMMr-1">
          <mxGeometry x="250" y="190" width="90" height="40" as="geometry" />
        </mxCell>
        <mxCell id="RxuUumW89x1owzj3WMMr-11" value="" style="rounded=0;whiteSpace=wrap;html=1;fillColor=#000000;" vertex="1" parent="RxuUumW89x1owzj3WMMr-1">
          <mxGeometry x="240" y="260" width="110" height="10" as="geometry" />
        </mxCell>
        <mxCell id="RxuUumW89x1owzj3WMMr-14" value="" style="endArrow=classic;html=1;fillColor=#000000;exitX=0.5;exitY=1;exitDx=0;exitDy=0;" edge="1" parent="RxuUumW89x1owzj3WMMr-1" source="RxuUumW89x1owzj3WMMr-3">
          <mxGeometry width="50" height="50" relative="1" as="geometry">
            <mxPoint x="280" y="250" as="sourcePoint" />
            <mxPoint x="295" y="260" as="targetPoint" />
          </mxGeometry>
        </mxCell>
        <mxCell id="RxuUumW89x1owzj3WMMr-15" value="" style="endArrow=classic;html=1;fillColor=#000000;exitX=0.5;exitY=1;exitDx=0;exitDy=0;entryX=0.5;entryY=0;entryDx=0;entryDy=0;" edge="1" parent="RxuUumW89x1owzj3WMMr-1" source="RxuUumW89x1owzj3WMMr-11" target="RxuUumW89x1owzj3WMMr-18">
          <mxGeometry width="50" height="50" relative="1" as="geometry">
            <mxPoint x="320" y="390" as="sourcePoint" />
            <mxPoint x="360" y="310" as="targetPoint" />
          </mxGeometry>
        </mxCell>
        <mxCell id="RxuUumW89x1owzj3WMMr-16" value="" style="endArrow=classic;html=1;fillColor=#000000;exitX=0.5;exitY=1;exitDx=0;exitDy=0;entryX=0.5;entryY=0;entryDx=0;entryDy=0;" edge="1" parent="RxuUumW89x1owzj3WMMr-1" source="RxuUumW89x1owzj3WMMr-11" target="RxuUumW89x1owzj3WMMr-17">
          <mxGeometry width="50" height="50" relative="1" as="geometry">
            <mxPoint x="140" y="440" as="sourcePoint" />
            <mxPoint x="240" y="310" as="targetPoint" />
          </mxGeometry>
        </mxCell>
        <mxCell id="RxuUumW89x1owzj3WMMr-20" value="" style="edgeStyle=none;orthogonalLoop=1;jettySize=auto;html=1;fillColor=#000000;" edge="1" parent="RxuUumW89x1owzj3WMMr-1" source="RxuUumW89x1owzj3WMMr-17" target="RxuUumW89x1owzj3WMMr-19">
          <mxGeometry relative="1" as="geometry" />
        </mxCell>
        <mxCell id="RxuUumW89x1owzj3WMMr-17" value="选择视频剪辑" style="rounded=1;whiteSpace=wrap;html=1;fillColor=#FFFFFF;" vertex="1" parent="RxuUumW89x1owzj3WMMr-1">
          <mxGeometry x="150" y="320" width="120" height="40" as="geometry" />
        </mxCell>
        <mxCell id="RxuUumW89x1owzj3WMMr-18" value="选择图片编辑" style="rounded=1;whiteSpace=wrap;html=1;fillColor=#FFFFFF;" vertex="1" parent="RxuUumW89x1owzj3WMMr-1">
          <mxGeometry x="330" y="320" width="120" height="40" as="geometry" />
        </mxCell>
        <mxCell id="RxuUumW89x1owzj3WMMr-22" value="" style="edgeStyle=none;orthogonalLoop=1;jettySize=auto;html=1;fillColor=#000000;" edge="1" parent="RxuUumW89x1owzj3WMMr-1" source="RxuUumW89x1owzj3WMMr-19">
          <mxGeometry relative="1" as="geometry">
            <mxPoint x="110" y="490" as="targetPoint" />
            <Array as="points">
              <mxPoint x="210" y="470" />
              <mxPoint x="110" y="470" />
            </Array>
          </mxGeometry>
        </mxCell>
        <mxCell id="RxuUumW89x1owzj3WMMr-19" value="上传视频音频字幕文件" style="rounded=1;whiteSpace=wrap;html=1;fillColor=#FFFFFF;" vertex="1" parent="RxuUumW89x1owzj3WMMr-1">
          <mxGeometry x="145" y="400" width="130" height="40" as="geometry" />
        </mxCell>
        <mxCell id="RxuUumW89x1owzj3WMMr-21" value="调节时长" style="whiteSpace=wrap;html=1;rounded=1;fillColor=#FFFFFF;" vertex="1" parent="RxuUumW89x1owzj3WMMr-1">
          <mxGeometry x="40" y="490" width="110" height="40" as="geometry" />
        </mxCell>
        <mxCell id="RxuUumW89x1owzj3WMMr-29" value="" style="edgeStyle=none;orthogonalLoop=1;jettySize=auto;html=1;fillColor=#000000;" edge="1" parent="RxuUumW89x1owzj3WMMr-1" source="RxuUumW89x1owzj3WMMr-23" target="RxuUumW89x1owzj3WMMr-27">
          <mxGeometry relative="1" as="geometry" />
        </mxCell>
        <mxCell id="RxuUumW89x1owzj3WMMr-23" value="调节字幕" style="whiteSpace=wrap;html=1;rounded=1;fillColor=#FFFFFF;" vertex="1" parent="RxuUumW89x1owzj3WMMr-1">
          <mxGeometry x="150" y="490" width="120" height="40" as="geometry" />
        </mxCell>
        <mxCell id="RxuUumW89x1owzj3WMMr-25" value="调节字幕" style="whiteSpace=wrap;html=1;rounded=1;fillColor=#FFFFFF;" vertex="1" parent="RxuUumW89x1owzj3WMMr-1">
          <mxGeometry x="280" y="490" width="120" height="40" as="geometry" />
        </mxCell>
        <mxCell id="RxuUumW89x1owzj3WMMr-26" value="" style="edgeStyle=none;orthogonalLoop=1;jettySize=auto;html=1;fillColor=#000000;entryX=0.5;entryY=0;entryDx=0;entryDy=0;exitX=0.5;exitY=1;exitDx=0;exitDy=0;" edge="1" parent="RxuUumW89x1owzj3WMMr-1" source="RxuUumW89x1owzj3WMMr-19" target="RxuUumW89x1owzj3WMMr-25">
          <mxGeometry relative="1" as="geometry">
            <mxPoint x="220" y="450" as="sourcePoint" />
            <mxPoint x="120" y="500" as="targetPoint" />
            <Array as="points">
              <mxPoint x="210" y="470" />
              <mxPoint x="340" y="470" />
            </Array>
          </mxGeometry>
        </mxCell>
        <mxCell id="RxuUumW89x1owzj3WMMr-36" value="" style="edgeStyle=none;orthogonalLoop=1;jettySize=auto;html=1;fillColor=#000000;" edge="1" parent="RxuUumW89x1owzj3WMMr-1" source="RxuUumW89x1owzj3WMMr-27" target="RxuUumW89x1owzj3WMMr-35">
          <mxGeometry relative="1" as="geometry" />
        </mxCell>
        <mxCell id="RxuUumW89x1owzj3WMMr-27" value="开始合成" style="rounded=1;whiteSpace=wrap;html=1;fillColor=#FFFFFF;" vertex="1" parent="RxuUumW89x1owzj3WMMr-1">
          <mxGeometry x="165" y="590" width="90" height="40" as="geometry" />
        </mxCell>
        <mxCell id="RxuUumW89x1owzj3WMMr-31" value="" style="endArrow=none;html=1;fillColor=#000000;entryX=0.5;entryY=1;entryDx=0;entryDy=0;" edge="1" parent="RxuUumW89x1owzj3WMMr-1" target="RxuUumW89x1owzj3WMMr-25">
          <mxGeometry width="50" height="50" relative="1" as="geometry">
            <mxPoint x="210" y="560" as="sourcePoint" />
            <mxPoint x="420" y="560" as="targetPoint" />
            <Array as="points">
              <mxPoint x="340" y="560" />
            </Array>
          </mxGeometry>
        </mxCell>
        <mxCell id="RxuUumW89x1owzj3WMMr-32" value="" style="endArrow=none;html=1;fillColor=#000000;exitX=0.5;exitY=1;exitDx=0;exitDy=0;" edge="1" parent="RxuUumW89x1owzj3WMMr-1" source="RxuUumW89x1owzj3WMMr-21">
          <mxGeometry width="50" height="50" relative="1" as="geometry">
            <mxPoint x="80" y="590" as="sourcePoint" />
            <mxPoint x="220" y="560" as="targetPoint" />
            <Array as="points">
              <mxPoint x="95" y="560" />
            </Array>
          </mxGeometry>
        </mxCell>
        <mxCell id="RxuUumW89x1owzj3WMMr-34" value="" style="endArrow=classic;html=1;fillColor=#000000;" edge="1" parent="RxuUumW89x1owzj3WMMr-1" target="RxuUumW89x1owzj3WMMr-23">
          <mxGeometry width="50" height="50" relative="1" as="geometry">
            <mxPoint x="210" y="460" as="sourcePoint" />
            <mxPoint x="260" y="460" as="targetPoint" />
          </mxGeometry>
        </mxCell>
        <mxCell id="RxuUumW89x1owzj3WMMr-38" value="" style="edgeStyle=none;orthogonalLoop=1;jettySize=auto;html=1;fillColor=#000000;" edge="1" parent="RxuUumW89x1owzj3WMMr-1" source="RxuUumW89x1owzj3WMMr-35">
          <mxGeometry relative="1" as="geometry">
            <mxPoint x="210" y="750" as="targetPoint" />
          </mxGeometry>
        </mxCell>
        <mxCell id="RxuUumW89x1owzj3WMMr-35" value="合成成功" style="rounded=1;whiteSpace=wrap;html=1;fillColor=#FFFFFF;" vertex="1" parent="RxuUumW89x1owzj3WMMr-1">
          <mxGeometry x="160" y="670" width="100" height="40" as="geometry" />
        </mxCell>
        <mxCell id="RxuUumW89x1owzj3WMMr-39" value="" style="ellipse;html=1;shape=endState;fillColor=#000000;strokeColor=#ff0000;" vertex="1" parent="RxuUumW89x1owzj3WMMr-1">
          <mxGeometry x="195" y="750" width="30" height="30" as="geometry" />
        </mxCell>
        <mxCell id="RxuUumW89x1owzj3WMMr-41" value="播放合成视频" style="text;html=1;strokeColor=none;fillColor=none;align=center;verticalAlign=middle;whiteSpace=wrap;rounded=0;" vertex="1" parent="RxuUumW89x1owzj3WMMr-1">
          <mxGeometry x="167.5" y="790" width="85" height="20" as="geometry" />
        </mxCell>
      </root>
    </mxGraphModel>
  </diagram>
</mxfile>
